<svg width="28" height="29" viewBox="0 0 28 29" fill="none" xmlns="http://www.w3.org/2000/svg">
<path d="M14.176 5.28394C17.3866 5.28394 20.239 6.732 22.27 8.52451C23.2895 9.42422 24.1293 10.4345 24.7214 11.4402C25.3032 12.4275 25.696 13.4977 25.696 14.4999C25.696 15.5022 25.3043 16.5724 24.7214 17.5596C24.1293 18.5653 23.2895 19.5756 22.27 20.4754C20.239 22.2679 17.3855 23.7159 14.176 23.7159C10.9654 23.7159 8.11303 22.2679 6.08205 20.4754C5.06253 19.5756 4.22273 18.5653 3.6306 17.5596C3.04769 16.5724 2.65601 15.5022 2.65601 14.4999C2.65601 13.4977 3.04769 12.4275 3.6306 11.4402C4.22273 10.4345 5.06253 9.42422 6.08205 8.52451C8.11303 6.732 10.9665 5.28394 14.176 5.28394ZM14.176 7.58794C11.66 7.58794 9.32839 8.73187 7.6073 10.2514C6.75021 11.0071 6.07284 11.8331 5.61549 12.6095C5.14778 13.4044 4.96001 14.0622 4.96001 14.4999C4.96001 14.9377 5.14778 15.5955 5.61549 16.3904C6.07284 17.1668 6.75021 17.9916 7.6073 18.7485C9.32839 20.268 11.66 21.4119 14.176 21.4119C16.692 21.4119 19.0236 20.268 20.7447 18.7485C21.6018 17.9916 22.2792 17.1668 22.7365 16.3904C23.2042 15.5955 23.392 14.9377 23.392 14.4999C23.392 14.0622 23.2042 13.4044 22.7365 12.6095C22.2792 11.8331 21.6018 11.0082 20.7447 10.2514C19.0236 8.73187 16.692 7.58794 14.176 7.58794ZM14.176 11.0439C14.2774 11.0439 14.3776 11.0485 14.4767 11.0566C14.2266 11.4954 14.1275 12.0041 14.1948 12.5046C14.2621 13.0052 14.492 13.4697 14.8491 13.8268C15.2062 14.1839 15.6708 14.4138 16.1713 14.4811C16.6718 14.5484 17.1806 14.4494 17.6193 14.1993C17.6799 14.893 17.5295 15.5888 17.1879 16.1956C16.8462 16.8023 16.3293 17.2917 15.7047 17.5997C15.0802 17.9076 14.3772 18.0197 13.6878 17.9212C12.9985 17.8228 12.3549 17.5184 11.8416 17.0479C11.3282 16.5775 10.9689 15.9629 10.8107 15.2848C10.6526 14.6066 10.703 13.8965 10.9554 13.2475C11.2077 12.5985 11.6502 12.0409 12.2249 11.6477C12.7996 11.2545 13.4797 11.044 14.176 11.0439Z" fill="#FC5185"/>
</svg>
 