<svg width="934" height="233" viewBox="0 0 934 233" fill="none" xmlns="http://www.w3.org/2000/svg">
<path d="M76.6 143.4L38.64 182.72V232.04L86.48 182.08H154.28C169.52 166.8 178.08 158.28 193.36 143V0H63.64C28.48 0 0 28.48 0 63.64V182.68H38.68V69.28C38.68 52.36 52.4 38.64 69.32 38.64H143.2L154.72 26.76V143.36H76.64L76.6 143.4Z" fill="#193AF9"/>
<path d="M301.4 20.12C310.32 20.12 318.48 22.12 325.84 26.16C333.2 30.2 338.96 35.8 343.16 42.96C347.36 50.12 349.44 58.12 349.44 66.92C349.44 80.2 344.84 91.28 335.64 100.12C326.44 109 315.04 113.44 301.4 113.44H265.12V163.6H240.44V20.12H301.4ZM300.96 90.2C307.52 90.2 313 88 317.4 83.56C321.8 79.12 324 73.6 324 66.96C324 60.32 321.8 54.56 317.4 50.12C313 45.64 307.52 43.4 300.96 43.4H265.12V90.24H300.96V90.2Z" fill="#06063A"/>
<path d="M416.28 55.84H420.24V79.8H416.28C406 79.8 397.92 82.68 392.04 88.48C386.2 94.28 383.24 102.12 383.24 112V163.6H359.88V57.6H383.24V73.12C391.72 61.6 402.72 55.84 416.24 55.84" fill="#06063A"/>
<path d="M475.88 166.16C459.68 166.16 446.2 160.84 435.36 150.2C424.52 139.56 419.12 126.36 419.12 110.6C419.12 94.84 424.52 81.64 435.36 71C446.2 60.36 459.68 55.04 475.88 55.04C486.44 55.04 496.08 57.48 504.76 62.32C513.48 67.16 520.28 73.84 525.24 82.32C530.16 90.8 532.64 100.24 532.64 110.6C532.64 120.96 530.16 130.4 525.24 138.88C520.28 147.36 513.48 154.04 504.76 158.88C496.04 163.72 486.44 166.16 475.88 166.16ZM452.44 134.12C458.72 140.44 466.56 143.6 475.92 143.6C485.28 143.6 493.04 140.44 499.24 134.12C505.44 127.8 508.52 119.96 508.52 110.6C508.52 101.24 505.44 93.32 499.24 87C493.04 80.68 485.28 77.52 475.92 77.52C466.56 77.52 458.76 80.72 452.44 87.08C446.12 93.44 443 101.28 443 110.64C443 120 446.16 127.84 452.44 134.16" fill="#06063A"/>
<path d="M677.84 57.6H703L664.92 163.64H640.84L615.68 85.4L590.28 163.64H566.08L528.12 57.6H554.12L578.8 134.28L604 57.6H627.76L653.04 134.48L677.84 57.6Z" fill="#06063A"/>
<path d="M788.24 57.6H811.6V163.64H788.24V148.4C778.88 160.24 766.52 166.16 751.08 166.16C741.28 166.16 732.36 163.76 724.36 158.92C716.36 154.08 710.12 147.44 705.64 138.96C701.12 130.48 698.88 121.04 698.88 110.6C698.88 100.16 701.12 90.72 705.64 82.28C710.16 73.8 716.4 67.16 724.36 62.32C732.36 57.48 741.24 55.04 751.08 55.04C766.6 55.04 779 60.92 788.24 72.72V57.6ZM755.64 143.6C765 143.6 772.76 140.44 778.96 134.12C785.16 127.8 788.24 119.96 788.24 110.6C788.24 101.24 785.16 93.32 778.96 87C772.76 80.68 765 77.52 755.64 77.52C746.28 77.52 738.4 80.68 732.12 87C725.84 93.32 722.72 101.2 722.72 110.6C722.72 120 725.84 127.8 732.12 134.12C738.4 140.44 746.2 143.6 755.64 143.6Z" fill="#06063A"/>
<path d="M907.48 57.6H933.48L879.12 183.84C876.28 190.68 872.12 196.04 866.68 199.88C861.24 203.72 855.24 205.68 848.76 205.68C844.28 205.68 839.64 204.72 834.8 202.8C829.96 200.88 825.8 198.36 822.36 195.24L831.72 177.16C835.56 181.24 840 183.24 845.04 183.24C850.64 183.24 854.88 180.24 857.72 174.2L863.4 162.44L819 57.6H845.72L876.48 134.88L907.44 57.6H907.48Z" fill="#06063A"/>
</svg>
