<svg width="28" height="29" viewBox="0 0 28 29" fill="none" xmlns="http://www.w3.org/2000/svg">
<path d="M3.86595 11.4211C3.81698 11.2749 3.79787 11.1203 3.80976 10.9665C3.82165 10.8128 3.86429 10.6629 3.93516 10.526C4.00603 10.389 4.10367 10.2676 4.22231 10.1691C4.34096 10.0706 4.47817 9.99686 4.62583 9.95235C4.77349 9.90784 4.92858 9.89342 5.08191 9.90997C5.23525 9.92651 5.3837 9.97367 5.51846 10.0487C5.65322 10.1236 5.77156 10.2249 5.86645 10.3465C5.96134 10.4681 6.03086 10.6075 6.07088 10.7564C8.47395 18.8043 19.8741 18.8054 22.2795 10.761C22.3226 10.6159 22.3939 10.4808 22.4893 10.3632C22.5846 10.2457 22.7022 10.1481 22.8353 10.076C22.9683 10.0039 23.1143 9.9587 23.2648 9.94301C23.4154 9.92733 23.5675 9.94144 23.7126 9.98456C23.8577 10.0277 23.9929 10.0989 24.1104 10.1943C24.2279 10.2897 24.3255 10.4072 24.3976 10.5403C24.4697 10.6734 24.5149 10.8193 24.5306 10.9699C24.5463 11.1204 24.5322 11.2726 24.4891 11.4176C24.0699 12.859 23.359 14.1989 22.4005 15.354L23.8693 16.824C24.0791 17.0413 24.1952 17.3323 24.1926 17.6343C24.19 17.9364 24.0688 18.2253 23.8552 18.4389C23.6417 18.6525 23.3527 18.7736 23.0507 18.7762C22.7486 18.7789 22.4576 18.6628 22.2403 18.4529L20.7301 16.9426C19.915 17.5572 19.0146 18.0497 18.0574 18.4045L18.4687 19.9424C18.5126 20.09 18.5264 20.2448 18.5095 20.3977C18.4925 20.5507 18.4451 20.6987 18.37 20.833C18.2949 20.9674 18.1936 21.0853 18.0722 21.1798C17.9508 21.2744 17.8116 21.3436 17.663 21.3835C17.5143 21.4234 17.3592 21.4331 17.2068 21.412C17.0543 21.3909 16.9076 21.3395 16.7754 21.2608C16.6431 21.1821 16.528 21.0777 16.4367 20.9538C16.3455 20.8298 16.28 20.6889 16.2442 20.5392L15.8249 18.9759C14.7339 19.1372 13.6188 19.1372 12.5278 18.9759L12.1085 20.5392C12.0727 20.6889 12.0072 20.8298 11.916 20.9538C11.8247 21.0777 11.7096 21.1821 11.5773 21.2608C11.4451 21.3395 11.2984 21.3909 11.1459 21.412C10.9935 21.4331 10.8384 21.4234 10.6897 21.3835C10.5411 21.3436 10.4019 21.2744 10.2805 21.1798C10.1591 21.0853 10.0578 20.9674 9.98269 20.833C9.90759 20.6987 9.86016 20.5507 9.8432 20.3977C9.82625 20.2448 9.84013 20.09 9.884 19.9424L10.2953 18.4045C9.33801 18.0493 8.43766 17.5565 7.62262 16.9415L6.1135 18.4529C5.89749 18.6692 5.6044 18.7909 5.2987 18.7911C4.993 18.7913 4.69974 18.6701 4.48342 18.4541C4.26711 18.2381 4.14546 17.945 4.14525 17.6393C4.14503 17.3336 4.26626 17.0403 4.48227 16.824L5.95107 15.3552C5.0479 14.2769 4.32675 12.9659 3.86365 11.4223L3.86595 11.4211Z" fill="#FC5185"/>
</svg>
