<svg width="28" height="29" viewBox="0 0 28 29" fill="none" xmlns="http://www.w3.org/2000/svg">
<g clip-path="url(#clip0_791_1438)">
<path d="M3.86589 11.4211C3.81692 11.2749 3.79781 11.1203 3.8097 10.9665C3.82159 10.8128 3.86423 10.6629 3.9351 10.526C4.00597 10.389 4.10361 10.2676 4.22225 10.1691C4.34089 10.0706 4.47811 9.99686 4.62577 9.95235C4.77343 9.90784 4.92852 9.89342 5.08185 9.90997C5.23518 9.92651 5.38363 9.97367 5.5184 10.0487C5.65316 10.1236 5.7715 10.2249 5.86639 10.3465C5.96128 10.4681 6.0308 10.6075 6.07082 10.7564C8.47389 18.8043 19.8741 18.8054 22.2795 10.761C22.3226 10.6159 22.3938 10.4808 22.4892 10.3632C22.5845 10.2457 22.7021 10.1481 22.8352 10.076C22.9683 10.0039 23.1142 9.9587 23.2648 9.94301C23.4153 9.92733 23.5675 9.94144 23.7125 9.98456C23.8576 10.0277 23.9928 10.0989 24.1103 10.1943C24.2279 10.2897 24.3255 10.4072 24.3976 10.5403C24.4697 10.6734 24.5149 10.8193 24.5305 10.9699C24.5462 11.1204 24.5321 11.2726 24.489 11.4176C24.0699 12.859 23.359 14.1989 22.4004 15.354L23.8692 16.824C24.0791 17.0413 24.1952 17.3323 24.1926 17.6343C24.1899 17.9364 24.0688 18.2253 23.8552 18.4389C23.6416 18.6525 23.3527 18.7736 23.0506 18.7762C22.7486 18.7789 22.4576 18.6628 22.2403 18.4529L20.73 16.9426C19.9149 17.5572 19.0146 18.0497 18.0574 18.4045L18.4686 19.9424C18.5125 20.09 18.5264 20.2448 18.5094 20.3977C18.4925 20.5507 18.4451 20.6987 18.3699 20.833C18.2948 20.9674 18.1936 21.0853 18.0721 21.1798C17.9507 21.2744 17.8116 21.3436 17.6629 21.3835C17.5143 21.4234 17.3591 21.4331 17.2067 21.412C17.0542 21.3909 16.9076 21.3395 16.7753 21.2608C16.6431 21.1821 16.5279 21.0777 16.4367 20.9538C16.3454 20.8298 16.28 20.6889 16.2441 20.5392L15.8248 18.9759C14.7339 19.1372 13.6187 19.1372 12.5278 18.9759L12.1084 20.5392C12.0726 20.6889 12.0071 20.8298 11.9159 20.9538C11.8247 21.0777 11.7095 21.1821 11.5773 21.2608C11.445 21.3395 11.2983 21.3909 11.1459 21.412C10.9934 21.4331 10.8383 21.4234 10.6897 21.3835C10.541 21.3436 10.4019 21.2744 10.2804 21.1798C10.159 21.0853 10.0577 20.9674 9.98263 20.833C9.90752 20.6987 9.86009 20.5507 9.84314 20.3977C9.82619 20.2448 9.84006 20.09 9.88394 19.9424L10.2952 18.4045C9.33795 18.0493 8.4376 17.5565 7.62256 16.9415L6.11344 18.4529C5.89743 18.6692 5.60434 18.7909 5.29864 18.7911C4.99294 18.7913 4.69968 18.6701 4.48336 18.4541C4.26705 18.2381 4.1454 17.945 4.14518 17.6393C4.14497 17.3336 4.2662 17.0403 4.48221 16.824L5.95101 15.3552C5.04784 14.2769 4.32669 12.9659 3.86359 11.4223L3.86589 11.4211Z" fill="#193AF9"/>
</g>
<defs>
<clipPath id="clip0_791_1438">
<rect width="27.648" height="27.648" fill="white" transform="translate(0.35199 0.696289)"/>
</clipPath>
</defs>
</svg>
