<svg width="168" height="42" viewBox="0 0 168 42" fill="none" xmlns="http://www.w3.org/2000/svg">
<path d="M13.7858 25.8079L6.95411 32.8844V41.7606L15.564 32.7692H27.766C30.5088 30.0193 32.0494 28.4859 34.7993 25.736V0H11.4534C5.12559 0 0 5.12559 0 11.4534V32.8772H6.96131V12.4684C6.96131 9.42332 9.43052 6.95411 12.4756 6.95411H25.7719L27.8452 4.81604V25.8007H13.793L13.7858 25.8079Z" fill="#193AF9"/>
<path d="M54.2434 3.62109C55.8488 3.62109 57.3173 3.98104 58.6419 4.70812C59.9665 5.43521 61.0032 6.44305 61.759 7.73165C62.5149 9.02024 62.8893 10.46 62.8893 12.0438C62.8893 14.4338 62.0614 16.4279 60.4056 18.0188C58.7499 19.617 56.6982 20.4161 54.2434 20.4161H47.714V29.4434H43.2723V3.62109H54.2434ZM54.1642 16.2335C55.3448 16.2335 56.3311 15.8376 57.123 15.0385C57.9148 14.2394 58.3108 13.246 58.3108 12.051C58.3108 10.856 57.9148 9.81932 57.123 9.02024C56.3311 8.21397 55.3448 7.81084 54.1642 7.81084H47.714V16.2407H54.1642V16.2335Z" fill="#090933"/>
<path d="M74.9185 10.0498H75.6312V14.3619H74.9185C73.0684 14.3619 71.6142 14.8802 70.556 15.9241C69.5049 16.9679 68.9722 18.3789 68.9722 20.157V29.4436H64.7681V10.3666H68.9722V13.1597C70.4984 11.0864 72.4781 10.0498 74.9113 10.0498" fill="#090933"/>
<path d="M85.6446 29.9047C82.7291 29.9047 80.3031 28.9473 78.3522 27.0324C76.4013 25.1175 75.4294 22.7418 75.4294 19.9055C75.4294 17.0691 76.4013 14.6935 78.3522 12.7786C80.3031 10.8637 82.7291 9.90625 85.6446 9.90625C87.5451 9.90625 89.2801 10.3454 90.8422 11.2164C92.4116 12.0875 93.6354 13.2897 94.528 14.8159C95.4135 16.342 95.8598 18.041 95.8598 19.9055C95.8598 21.77 95.4135 23.4689 94.528 24.9951C93.6354 26.5212 92.4116 27.7234 90.8422 28.5945C89.2729 29.4656 87.5451 29.9047 85.6446 29.9047ZM81.4261 24.1384C82.5563 25.2758 83.9673 25.8445 85.6518 25.8445C87.3364 25.8445 88.733 25.2758 89.8488 24.1384C90.9646 23.001 91.5189 21.59 91.5189 19.9055C91.5189 18.2209 90.9646 16.7956 89.8488 15.6581C88.733 14.5207 87.3364 13.952 85.6518 13.952C83.9673 13.952 82.5635 14.5279 81.4261 15.6725C80.2887 16.8172 79.7272 18.2281 79.7272 19.9127C79.7272 21.5972 80.2959 23.0082 81.4261 24.1456" fill="#090933"/>
<path d="M121.992 10.3662H126.52L119.667 29.4504H115.333L110.805 15.3694L106.234 29.4504H101.878L95.0465 10.3662H99.7258L104.167 24.1664L108.703 10.3662H112.979L117.529 24.2024L121.992 10.3662Z" fill="#090933"/>
<path d="M141.861 10.367H146.065V29.4512H141.861V26.7084C140.176 28.8393 137.952 29.9047 135.173 29.9047C133.409 29.9047 131.804 29.4728 130.364 28.6017C128.924 27.7306 127.801 26.5356 126.995 25.0095C126.182 23.4833 125.779 21.7844 125.779 19.9055C125.779 18.0266 126.182 16.3276 126.995 14.8087C127.809 13.2825 128.932 12.0875 130.364 11.2164C131.804 10.3454 133.402 9.90625 135.173 9.90625C137.966 9.90625 140.198 10.9645 141.861 13.0881V10.367ZM135.994 25.8445C137.678 25.8445 139.075 25.2758 140.191 24.1384C141.307 23.001 141.861 21.59 141.861 19.9055C141.861 18.2209 141.307 16.7956 140.191 15.6581C139.075 14.5207 137.678 13.952 135.994 13.952C134.309 13.952 132.891 14.5207 131.761 15.6581C130.631 16.7956 130.069 18.2137 130.069 19.9055C130.069 21.5972 130.631 23.001 131.761 24.1384C132.891 25.2758 134.295 25.8445 135.994 25.8445Z" fill="#090933"/>
<path d="M163.32 10.3662H168L158.216 33.0858C157.705 34.3168 156.957 35.2815 155.978 35.9726C154.998 36.6637 153.919 37.0164 152.752 37.0164C151.946 37.0164 151.111 36.8436 150.24 36.4981C149.369 36.1526 148.62 35.699 148.001 35.1375L149.686 31.8836C150.377 32.6179 151.176 32.9779 152.083 32.9779C153.091 32.9779 153.854 32.4379 154.365 31.3509L155.387 29.2344L147.396 10.3662H152.205L157.741 24.2744L163.313 10.3662H163.32Z" fill="#090933"/>
</svg>
