<svg width="28" height="29" viewBox="0 0 28 29" fill="none" xmlns="http://www.w3.org/2000/svg">
<path d="M14.1759 2.97998C20.5384 2.97998 25.6959 8.13749 25.6959 14.5C25.6959 20.8625 20.5384 26.02 14.1759 26.02C7.81344 26.02 2.65594 20.8625 2.65594 14.5C2.65594 8.13749 7.81344 2.97998 14.1759 2.97998ZM14.1759 5.28398C11.7317 5.28398 9.38758 6.25495 7.65924 7.98328C5.93091 9.71162 4.95994 12.0557 4.95994 14.5C4.95994 16.9442 5.93091 19.2883 7.65924 21.0167C9.38758 22.745 11.7317 23.716 14.1759 23.716C16.6202 23.716 18.9643 22.745 20.6926 21.0167C22.421 19.2883 23.3919 16.9442 23.3919 14.5C23.3919 12.0557 22.421 9.71162 20.6926 7.98328C18.9643 6.25495 16.6202 5.28398 14.1759 5.28398ZM18.2483 10.3309C18.4551 10.1221 18.7339 10.0002 19.0276 9.99027C19.3214 9.9803 19.6078 10.083 19.8283 10.2773C20.0488 10.4716 20.1867 10.7428 20.2138 11.0355C20.2409 11.3281 20.1551 11.6201 19.974 11.8515L19.8783 11.9598L13.4433 18.396C13.2236 18.6156 12.931 18.7469 12.6209 18.765C12.3109 18.783 12.005 18.6866 11.7613 18.494L11.6508 18.396L8.47354 15.2188C8.26473 15.012 8.14288 14.7332 8.13291 14.4394C8.12295 14.1457 8.22563 13.8593 8.41993 13.6388C8.61424 13.4183 8.88548 13.2804 9.17813 13.2533C9.47078 13.2262 9.76272 13.312 9.99418 13.4931L10.1025 13.5899L12.547 16.0333L18.2494 10.3309H18.2483Z" fill="#193AF9"/>
</svg>
