<svg width="26" height="20" viewBox="0 0 26 20" fill="none" xmlns="http://www.w3.org/2000/svg">
<path fill-rule="evenodd" clip-rule="evenodd" d="M12.9996 10.5001C15.1573 10.5001 17.1123 11.2143 18.5465 12.2131C19.9093 13.1635 21.0636 14.5759 21.0636 16.0953C21.0636 16.9294 20.7077 17.6206 20.1466 18.1344C19.619 18.6194 18.9301 18.9339 18.2205 19.1481C16.8024 19.5778 14.935 19.7161 12.9996 19.7161C11.0643 19.7161 9.19689 19.5778 7.77877 19.1481C7.06914 18.9339 6.38025 18.6194 5.85148 18.1344C5.29276 17.6217 4.93564 16.9305 4.93564 16.0965C4.93564 14.577 6.08994 13.1647 7.45276 12.2143C8.887 11.2143 10.8419 10.5001 12.9996 10.5001ZM12.9996 12.8041C11.3408 12.8041 9.8397 13.357 8.7718 14.1024C7.63247 14.8973 7.23964 15.706 7.23964 16.0953C7.23964 16.4456 7.64514 16.6644 8.01378 16.8027L8.24994 16.8833L8.44578 16.9432C9.52866 17.2704 11.1184 17.4121 12.9996 17.4121C14.7369 17.4121 16.2241 17.2911 17.2943 17.0158L17.6445 16.9156L17.8634 16.8464C18.2585 16.7117 18.7596 16.4847 18.7596 16.0953C18.7596 15.706 18.3668 14.8973 17.2275 14.1024C16.1607 13.3582 14.6585 12.8041 12.9996 12.8041ZM21.0636 11.6521C22.2663 11.6521 23.3584 12.0495 24.166 12.6117C24.9033 13.1266 25.6716 13.9826 25.6716 15.0263C25.6716 16.5642 24.1775 17.1149 22.8343 17.3072L22.4887 17.3499L22.1557 17.3787C22.1028 17.3821 22.0498 17.3852 21.9968 17.3879C22.1373 16.9904 22.2156 16.5584 22.2156 16.0953C22.2156 15.744 22.1719 15.4018 22.0924 15.0724C22.537 15.0378 22.9022 14.9802 23.1741 14.8984C23.2939 14.8616 23.1856 14.7487 23.0589 14.6507L22.9356 14.5609L22.8481 14.5021C22.5023 14.2661 22.1125 14.1023 21.7018 14.0206C21.2641 13.1451 20.5913 12.3871 19.8748 11.7823C20.2652 11.6958 20.6638 11.6522 21.0636 11.6521ZM4.93564 11.6521C5.3469 11.6521 5.74549 11.6982 6.1245 11.7823C5.40796 12.3871 4.73519 13.1451 4.29743 14.0206C3.85045 14.1116 3.45532 14.2902 3.15119 14.5021L3.00373 14.6035C2.85743 14.7095 2.68578 14.8569 2.82517 14.8984C3.09704 14.9802 3.46223 15.039 3.90805 15.0724C3.82741 15.4018 3.78364 15.744 3.78364 16.0953C3.78364 16.5584 3.86197 16.9904 4.00252 17.3879L3.67996 17.3648L3.33896 17.3303C1.95426 17.1609 0.327637 16.631 0.327637 15.0263C0.327637 13.9837 1.09487 13.1266 1.8333 12.6117C2.74668 11.9857 3.82831 11.6511 4.93564 11.6521ZM20.4876 4.74008C21.2515 4.74008 21.984 5.04351 22.5241 5.58361C23.0642 6.12372 23.3676 6.85626 23.3676 7.62008C23.3676 8.3839 23.0642 9.11644 22.5241 9.65655C21.984 10.1967 21.2515 10.5001 20.4876 10.5001C19.7238 10.5001 18.9913 10.1967 18.4512 9.65655C17.9111 9.11644 17.6076 8.3839 17.6076 7.62008C17.6076 6.85626 17.9111 6.12372 18.4512 5.58361C18.9913 5.04351 19.7238 4.74008 20.4876 4.74008ZM5.51164 4.74008C6.27546 4.74008 7.008 5.04351 7.5481 5.58361C8.08821 6.12372 8.39164 6.85626 8.39164 7.62008C8.39164 8.3839 8.08821 9.11644 7.5481 9.65655C7.008 10.1967 6.27546 10.5001 5.51164 10.5001C4.74781 10.5001 4.01527 10.1967 3.47517 9.65655C2.93506 9.11644 2.63164 8.3839 2.63164 7.62008C2.63164 6.85626 2.93506 6.12372 3.47517 5.58361C4.01527 5.04351 4.74781 4.74008 5.51164 4.74008ZM12.9996 0.13208C14.2218 0.13208 15.3938 0.617564 16.258 1.48173C17.1222 2.3459 17.6076 3.51796 17.6076 4.74008C17.6076 5.9622 17.1222 7.13426 16.258 7.99843C15.3938 8.8626 14.2218 9.34808 12.9996 9.34808C11.7775 9.34808 10.6055 8.8626 9.74129 7.99843C8.87712 7.13426 8.39164 5.9622 8.39164 4.74008C8.39164 3.51796 8.87712 2.3459 9.74129 1.48173C10.6055 0.617564 11.7775 0.13208 12.9996 0.13208ZM20.4876 7.04408C20.3349 7.04408 20.1884 7.10476 20.0803 7.21279C19.9723 7.32081 19.9116 7.46732 19.9116 7.62008C19.9116 7.77284 19.9723 7.91935 20.0803 8.02737C20.1884 8.1354 20.3349 8.19608 20.4876 8.19608C20.6404 8.19608 20.7869 8.1354 20.8949 8.02737C21.003 7.91935 21.0636 7.77284 21.0636 7.62008C21.0636 7.46732 21.003 7.32081 20.8949 7.21279C20.7869 7.10476 20.6404 7.04408 20.4876 7.04408ZM5.51164 7.04408C5.35887 7.04408 5.21236 7.10476 5.10434 7.21279C4.99632 7.32081 4.93564 7.46732 4.93564 7.62008C4.93564 7.77284 4.99632 7.91935 5.10434 8.02737C5.21236 8.1354 5.35887 8.19608 5.51164 8.19608C5.6644 8.19608 5.81091 8.1354 5.91893 8.02737C6.02695 7.91935 6.08764 7.77284 6.08764 7.62008C6.08764 7.46732 6.02695 7.32081 5.91893 7.21279C5.81091 7.10476 5.6644 7.04408 5.51164 7.04408ZM12.9996 2.43608C12.3886 2.43608 11.8025 2.67882 11.3705 3.11091C10.9384 3.54299 10.6956 4.12902 10.6956 4.74008C10.6956 5.35114 10.9384 5.93717 11.3705 6.36925C11.8025 6.80134 12.3886 7.04408 12.9996 7.04408C13.6107 7.04408 14.1967 6.80134 14.6288 6.36925C15.0609 5.93717 15.3036 5.35114 15.3036 4.74008C15.3036 4.12902 15.0609 3.54299 14.6288 3.11091C14.1967 2.67882 13.6107 2.43608 12.9996 2.43608Z" fill="#193AF9"/>
</svg>
