<svg width="26" height="20" viewBox="0 0 26 20" fill="none" xmlns="http://www.w3.org/2000/svg">
<path fill-rule="evenodd" clip-rule="evenodd" d="M12.8085 10.7769C14.9662 10.7769 16.9211 11.4911 18.3554 12.4899C19.7182 13.4403 20.8725 14.8527 20.8725 16.3721C20.8725 17.2062 20.5165 17.8974 19.9555 18.4112C19.4279 18.8962 18.739 19.2107 18.0293 19.4249C16.6112 19.8546 14.7438 19.9929 12.8085 19.9929C10.8731 19.9929 9.00572 19.8546 7.58761 19.4249C6.87798 19.2107 6.18908 18.8962 5.66032 18.4112C5.10159 17.8985 4.74447 17.2073 4.74447 16.3733C4.74447 14.8538 5.89878 13.4414 7.26159 12.491C8.69583 11.4911 10.6508 10.7769 12.8085 10.7769ZM12.8085 13.0809C11.1496 13.0809 9.64854 13.6338 8.58064 14.3792C7.44131 15.1741 7.04848 15.9828 7.04848 16.3721C7.04848 16.7223 7.45398 16.9412 7.82262 17.0795L8.05878 17.1601L8.25462 17.22C9.3375 17.5472 10.9273 17.6889 12.8085 17.6889C14.5457 17.6889 16.0329 17.5679 17.1031 17.2926L17.4533 17.1924L17.6722 17.1232C18.0674 16.9885 18.5685 16.7615 18.5685 16.3721C18.5685 15.9828 18.1756 15.1741 17.0363 14.3792C15.9696 13.635 14.4674 13.0809 12.8085 13.0809ZM20.8725 11.9289C22.0752 11.9289 23.1673 12.3263 23.9748 12.8885C24.7121 13.4034 25.4805 14.2594 25.4805 15.3031C25.4805 16.841 23.9863 17.3917 22.6431 17.584L22.2975 17.6267L21.9646 17.6555C21.9116 17.6589 21.8586 17.662 21.8056 17.6647C21.9461 17.2672 22.0245 16.8352 22.0245 16.3721C22.0245 16.0208 21.9807 15.6786 21.9012 15.3492C22.3459 15.3146 22.7111 15.257 22.9829 15.1752C23.1027 15.1383 22.9945 15.0254 22.8677 14.9275L22.7445 14.8377L22.6569 14.7789C22.3112 14.5428 21.9213 14.3791 21.5107 14.2974C21.0729 13.4219 20.4002 12.6638 19.6836 12.059C20.074 11.9726 20.4726 11.929 20.8725 11.9289ZM4.74447 11.9289C5.15574 11.9289 5.55433 11.975 5.93334 12.059C5.2168 12.6638 4.54403 13.4219 4.10627 14.2974C3.65929 14.3884 3.26415 14.567 2.96003 14.7789L2.81257 14.8803C2.66627 14.9863 2.49462 15.1337 2.63401 15.1752C2.90588 15.257 3.27107 15.3158 3.71689 15.3492C3.63625 15.6786 3.59247 16.0208 3.59247 16.3721C3.59247 16.8352 3.67081 17.2672 3.81135 17.6647L3.48879 17.6416L3.1478 17.6071C1.7631 17.4377 0.136475 16.9078 0.136475 15.3031C0.136475 14.2605 0.903707 13.4034 1.64214 12.8885C2.55552 12.2625 3.63715 11.9279 4.74447 11.9289ZM20.2965 5.01687C21.0603 5.01687 21.7928 5.3203 22.3329 5.86041C22.873 6.40051 23.1765 7.13305 23.1765 7.89687C23.1765 8.6607 22.873 9.39324 22.3329 9.93334C21.7928 10.4734 21.0603 10.7769 20.2965 10.7769C19.5327 10.7769 18.8001 10.4734 18.26 9.93334C17.7199 9.39324 17.4165 8.6607 17.4165 7.89687C17.4165 7.13305 17.7199 6.40051 18.26 5.86041C18.8001 5.3203 19.5327 5.01687 20.2965 5.01687ZM5.32048 5.01687C6.0843 5.01687 6.81684 5.3203 7.35694 5.86041C7.89705 6.40051 8.20047 7.13305 8.20047 7.89687C8.20047 8.6607 7.89705 9.39324 7.35694 9.93334C6.81684 10.4734 6.0843 10.7769 5.32048 10.7769C4.55665 10.7769 3.82411 10.4734 3.28401 9.93334C2.7439 9.39324 2.44047 8.6607 2.44047 7.89687C2.44047 7.13305 2.7439 6.40051 3.28401 5.86041C3.82411 5.3203 4.55665 5.01687 5.32048 5.01687ZM12.8085 0.408875C14.0306 0.408875 15.2027 0.894359 16.0668 1.75853C16.931 2.62269 17.4165 3.79476 17.4165 5.01687C17.4165 6.23899 16.931 7.41105 16.0668 8.27522C15.2027 9.13939 14.0306 9.62487 12.8085 9.62487C11.5864 9.62487 10.4143 9.13939 9.55013 8.27522C8.68596 7.41105 8.20047 6.23899 8.20047 5.01687C8.20047 3.79476 8.68596 2.62269 9.55013 1.75853C10.4143 0.894359 11.5864 0.408875 12.8085 0.408875ZM20.2965 7.32087C20.1437 7.32087 19.9972 7.38156 19.8892 7.48958C19.7812 7.5976 19.7205 7.74411 19.7205 7.89687C19.7205 8.04964 19.7812 8.19615 19.8892 8.30417C19.9972 8.41219 20.1437 8.47287 20.2965 8.47287C20.4492 8.47287 20.5957 8.41219 20.7038 8.30417C20.8118 8.19615 20.8725 8.04964 20.8725 7.89687C20.8725 7.74411 20.8118 7.5976 20.7038 7.48958C20.5957 7.38156 20.4492 7.32087 20.2965 7.32087ZM5.32048 7.32087C5.16771 7.32087 5.0212 7.38156 4.91318 7.48958C4.80516 7.5976 4.74447 7.74411 4.74447 7.89687C4.74447 8.04964 4.80516 8.19615 4.91318 8.30417C5.0212 8.41219 5.16771 8.47287 5.32048 8.47287C5.47324 8.47287 5.61975 8.41219 5.72777 8.30417C5.83579 8.19615 5.89647 8.04964 5.89647 7.89687C5.89647 7.74411 5.83579 7.5976 5.72777 7.48958C5.61975 7.38156 5.47324 7.32087 5.32048 7.32087ZM12.8085 2.71287C12.1974 2.71287 11.6114 2.95562 11.1793 3.3877C10.7472 3.81978 10.5045 4.40582 10.5045 5.01687C10.5045 5.62793 10.7472 6.21396 11.1793 6.64605C11.6114 7.07813 12.1974 7.32087 12.8085 7.32087C13.4195 7.32087 14.0056 7.07813 14.4376 6.64605C14.8697 6.21396 15.1125 5.62793 15.1125 5.01687C15.1125 4.40582 14.8697 3.81978 14.4376 3.3877C14.0056 2.95562 13.4195 2.71287 12.8085 2.71287Z" fill="#193AF9"/>
</svg>
