<svg width="21" height="22" viewBox="0 0 21 22" fill="none" xmlns="http://www.w3.org/2000/svg">
<path fill-rule="evenodd" clip-rule="evenodd" d="M9.11762 0.728867C9.51643 0.429756 10.0015 0.268066 10.5 0.268066C10.9985 0.268066 11.4836 0.429756 11.8824 0.728867L19.9464 6.77687C20.2326 6.99148 20.4648 7.26976 20.6248 7.58969C20.7847 7.90961 20.868 8.26238 20.868 8.62007V19.5641C20.868 20.1751 20.6253 20.7612 20.1932 21.1932C19.7611 21.6253 19.1751 21.8681 18.564 21.8681H2.43602C1.82496 21.8681 1.23893 21.6253 0.806845 21.1932C0.374761 20.7612 0.132019 20.1751 0.132019 19.5641V8.62007C0.132019 8.26238 0.215297 7.90961 0.375259 7.58969C0.53522 7.26976 0.767471 6.99148 1.05362 6.77687L9.11762 0.728867ZM10.5 2.57207L2.43602 8.62007V19.5641H18.564V8.62007L10.5 2.57207Z" fill="#193AF9"/>
</svg>
