<svg width="24" height="25" viewBox="0 0 24 25" fill="none" xmlns="http://www.w3.org/2000/svg">
<path d="M11.796 0.97998C18.1585 0.97998 23.316 6.13749 23.316 12.5C23.316 18.8625 18.1585 24.02 11.796 24.02H2.58003C1.96897 24.02 1.38294 23.7772 0.950857 23.3452C0.518774 22.9131 0.276031 22.327 0.276031 21.716V12.5C0.276031 6.13749 5.43354 0.97998 11.796 0.97998ZM11.796 3.28398C9.3518 3.28398 7.00767 4.25495 5.27934 5.98328C3.551 7.71162 2.58003 10.0557 2.58003 12.5V21.716H11.796C14.2403 21.716 16.5844 20.745 18.3127 19.0167C20.0411 17.2883 21.012 14.9442 21.012 12.5C21.012 10.0557 20.0411 7.71162 18.3127 5.98328C16.5844 4.25495 14.2403 3.28398 11.796 3.28398ZM11.796 14.804C12.0897 14.8043 12.3721 14.9167 12.5856 15.1183C12.7991 15.3199 12.9276 15.5954 12.9448 15.8885C12.962 16.1816 12.8666 16.4702 12.6782 16.6954C12.4897 16.9205 12.2224 17.0652 11.9308 17.0999L11.796 17.108H8.34003C8.04641 17.1077 7.76399 16.9952 7.55049 16.7937C7.33698 16.5921 7.2085 16.3166 7.19129 16.0235C7.17408 15.7304 7.26945 15.4418 7.4579 15.2166C7.64636 14.9914 7.91368 14.8467 8.20525 14.812L8.34003 14.804H11.796ZM15.252 10.196C15.5576 10.196 15.8506 10.3174 16.0666 10.5334C16.2827 10.7494 16.404 11.0425 16.404 11.348C16.404 11.6535 16.2827 11.9465 16.0666 12.1626C15.8506 12.3786 15.5576 12.5 15.252 12.5H8.34003C8.0345 12.5 7.74149 12.3786 7.52544 12.1626C7.3094 11.9465 7.18803 11.6535 7.18803 11.348C7.18803 11.0425 7.3094 10.7494 7.52544 10.5334C7.74149 10.3174 8.0345 10.196 8.34003 10.196H15.252Z" fill="#193AF9"/>
</svg>
