<svg width="25" height="22" viewBox="0 0 25 22" fill="none" xmlns="http://www.w3.org/2000/svg">
<path d="M22.868 0.131866C23.1736 0.131866 23.4666 0.253237 23.6826 0.469279C23.8987 0.685321 24.02 0.978337 24.02 1.28387C24.02 1.5894 23.8987 1.88241 23.6826 2.09845C23.4666 2.3145 23.1736 2.43587 22.868 2.43587V15.1079C22.868 15.7189 22.6253 16.305 22.1932 16.737C21.7611 17.1691 21.1751 17.4119 20.564 17.4119H14.7407L17.3822 20.0534C17.5921 20.2707 17.7082 20.5617 17.7056 20.8637C17.7029 21.1658 17.5818 21.4547 17.3682 21.6683C17.1546 21.8819 16.8657 22.003 16.5636 22.0057C16.2616 22.0083 15.9706 21.8922 15.7533 21.6823L12.4954 18.4245L9.23643 21.6823C9.01916 21.8922 8.72816 22.0083 8.42611 22.0057C8.12406 22.003 7.83512 21.8819 7.62153 21.6683C7.40794 21.4547 7.28679 21.1658 7.28416 20.8637C7.28154 20.5617 7.39765 20.2707 7.6075 20.0534L10.249 17.4119H4.43604C3.82498 17.4119 3.23895 17.1691 2.80687 16.737C2.37478 16.305 2.13204 15.7189 2.13204 15.1079V2.43587C1.82651 2.43587 1.5335 2.3145 1.31745 2.09845C1.10141 1.88241 0.980042 1.5894 0.980042 1.28387C0.980042 0.978337 1.10141 0.685321 1.31745 0.469279C1.5335 0.253237 1.82651 0.131866 2.13204 0.131866H22.868ZM20.564 2.43587H4.43604V15.1079H20.564V2.43587ZM19.0169 4.93801C19.2329 5.15404 19.3542 5.44701 19.3542 5.75247C19.3542 6.05794 19.2329 6.35091 19.0169 6.56694L14.137 11.4468C13.9188 11.6649 13.623 11.7874 13.3145 11.7874C13.006 11.7874 12.7102 11.6649 12.492 11.4468L10.0578 9.01148L7.61441 11.456C7.39825 11.6722 7.10507 11.7936 6.79937 11.7936C6.49367 11.7936 6.20049 11.6722 5.98433 11.456C5.76817 11.2399 5.64673 10.9467 5.64673 10.641C5.64673 10.4896 5.67654 10.3397 5.73447 10.1999C5.79239 10.06 5.8773 9.93298 5.98433 9.82595L9.23527 6.57731C9.45346 6.35923 9.74932 6.23672 10.0578 6.23672C10.3663 6.23672 10.6621 6.35923 10.8803 6.57731L13.3145 9.01033L17.388 4.93801C17.604 4.72204 17.897 4.60072 18.2024 4.60072C18.5079 4.60072 18.8009 4.72204 19.0169 4.93801Z" fill="#193AF9"/>
</svg>
