<svg width="24" height="21" viewBox="0 0 24 21" fill="none" xmlns="http://www.w3.org/2000/svg">
<path d="M14.396 0.131958C15.0071 0.131958 15.5931 0.3747 16.0252 0.806784C16.4573 1.23887 16.7 1.8249 16.7 2.43596V5.89196H21.308C21.9191 5.89196 22.5051 6.1347 22.9372 6.56678C23.3693 6.99887 23.612 7.5849 23.612 8.19596V18.564C23.612 19.175 23.3693 19.761 22.9372 20.1931C22.5051 20.6252 21.9191 20.868 21.308 20.868H2.87602C2.26496 20.868 1.67893 20.6252 1.24685 20.1931C0.814764 19.761 0.572021 19.175 0.572021 18.564V11.652C0.572021 11.0409 0.814764 10.4549 1.24685 10.0228C1.67893 9.5907 2.26496 9.34796 2.87602 9.34796H7.48402V2.43596C7.48402 1.8249 7.72676 1.23887 8.15885 0.806784C8.59093 0.3747 9.17696 0.131958 9.78802 0.131958H14.396ZM14.396 2.43596H9.78802V18.564H14.396V2.43596ZM21.308 8.19596H16.7V18.564H21.308V8.19596ZM7.48402 11.652H2.87602V18.564H7.48402V11.652Z" fill="#193AF9"/>
</svg>
