<svg width="22" height="23" viewBox="0 0 22 23" fill="none" xmlns="http://www.w3.org/2000/svg">
<path fill-rule="evenodd" clip-rule="evenodd" d="M9.65205 0.633252C10.0577 0.398952 10.5144 0.267154 10.9826 0.249288C11.4507 0.231421 11.9162 0.328026 12.3385 0.530724L12.5321 0.633252L19.7827 4.81847C20.1905 5.05381 20.5344 5.38553 20.7842 5.78459C21.0341 6.18365 21.1823 6.63788 21.2158 7.10749L21.2227 7.31255V15.6853C21.2226 16.156 21.1072 16.6194 20.8865 17.0352C20.6658 17.4509 20.3465 17.8062 19.9567 18.0699L19.7839 18.1794L12.5321 22.3657C12.1264 22.6 11.6697 22.7318 11.2015 22.7497C10.7334 22.7676 10.2679 22.671 9.84559 22.4683L9.65205 22.3646L2.40136 18.1817C1.99359 17.9463 1.64972 17.6146 1.39988 17.2155C1.15004 16.8165 1.00185 16.3623 0.968277 15.8926L0.961365 15.6876V7.3137C0.961597 6.84292 1.07723 6.37938 1.29815 5.96365C1.51907 5.54793 1.83853 5.1927 2.22856 4.92906L2.40136 4.81962L9.65205 0.633252ZM11.3801 2.62852C11.3074 2.5866 11.2264 2.56107 11.1428 2.55371C11.0593 2.54635 10.9751 2.55733 10.8962 2.58589L10.8041 2.62852L3.55336 6.81488C3.48077 6.85685 3.41821 6.91415 3.37006 6.9828C3.3219 7.05145 3.28932 7.12978 3.27458 7.21232L3.26536 7.3137V15.6864C3.26545 15.7703 3.28385 15.8531 3.31926 15.9291C3.35468 16.0051 3.40627 16.0725 3.47042 16.1265L3.55336 16.1841L10.8041 20.3716C10.8767 20.4135 10.9577 20.4391 11.0413 20.4464C11.1248 20.4538 11.209 20.4428 11.2879 20.4142L11.3801 20.3716L18.6307 16.1853C18.7036 16.1434 18.7663 16.0862 18.8147 16.0175C18.863 15.9489 18.8958 15.8705 18.9107 15.7878L18.9187 15.6864V7.3137C18.9188 7.22993 18.9006 7.14716 18.8654 7.07116C18.8301 6.99516 18.7788 6.92775 18.7148 6.87364L18.6307 6.81488L11.3801 2.62852ZM11.0921 6.89207C12.3142 6.89207 13.4862 7.37755 14.3504 8.24172C15.2146 9.10589 15.7001 10.278 15.7001 11.5001C15.7001 12.7222 15.2146 13.8942 14.3504 14.7584C13.4862 15.6226 12.3142 16.1081 11.0921 16.1081C9.86993 16.1081 8.69787 15.6226 7.8337 14.7584C6.96954 13.8942 6.48405 12.7222 6.48405 11.5001C6.48405 10.278 6.96954 9.10589 7.8337 8.24172C8.69787 7.37755 9.86993 6.89207 11.0921 6.89207ZM11.0921 9.19607C10.481 9.19607 9.89496 9.43881 9.46288 9.87089C9.0308 10.303 8.78805 10.889 8.78805 11.5001C8.78805 12.1111 9.0308 12.6972 9.46288 13.1292C9.89496 13.5613 10.481 13.8041 11.0921 13.8041C11.7031 13.8041 12.2891 13.5613 12.7212 13.1292C13.1533 12.6972 13.3961 12.1111 13.3961 11.5001C13.3961 10.889 13.1533 10.303 12.7212 9.87089C12.2891 9.43881 11.7031 9.19607 11.0921 9.19607Z" fill="#193AF9"/>
</svg>
