<svg width="25" height="25" viewBox="0 0 25 25" fill="none" xmlns="http://www.w3.org/2000/svg">
<path d="M12.5001 0.980042C18.8626 0.980042 24.0201 6.13755 24.0201 12.5C24.0201 18.8625 18.8626 24.02 12.5001 24.02C6.13761 24.02 0.980103 18.8625 0.980103 12.5C0.980103 6.13755 6.13761 0.980042 12.5001 0.980042ZM12.5001 3.28404C10.0559 3.28404 7.71174 4.25501 5.98341 5.98335C4.25507 7.71168 3.2841 10.0558 3.2841 12.5C3.2841 14.9443 4.25507 17.2884 5.98341 19.0167C7.71174 20.7451 10.0559 21.716 12.5001 21.716C14.9443 21.716 17.2885 20.7451 19.0168 19.0167C20.7451 17.2884 21.7161 14.9443 21.7161 12.5C21.7161 10.0558 20.7451 7.71168 19.0168 5.98335C17.2885 4.25501 14.9443 3.28404 12.5001 3.28404ZM12.5001 17.108C12.8056 17.108 13.0986 17.2294 13.3147 17.4455C13.5307 17.6615 13.6521 17.9545 13.6521 18.26C13.6521 18.5656 13.5307 18.8586 13.3147 19.0746C13.0986 19.2907 12.8056 19.412 12.5001 19.412C12.1946 19.412 11.9016 19.2907 11.6855 19.0746C11.4695 18.8586 11.3481 18.5656 11.3481 18.26C11.3481 17.9545 11.4695 17.6615 11.6855 17.4455C11.9016 17.2294 12.1946 17.108 12.5001 17.108ZM12.5001 6.16404C13.4704 6.16407 14.4104 6.50199 15.1587 7.11974C15.9069 7.7375 16.4167 8.59653 16.6004 9.54928C16.7842 10.502 16.6304 11.489 16.1655 12.3407C15.7007 13.1924 14.9537 13.8557 14.053 14.2165C13.9203 14.2669 13.8003 14.346 13.7016 14.4481C13.651 14.5057 13.6429 14.5794 13.644 14.6554L13.6521 14.804C13.6518 15.0977 13.5393 15.3801 13.3378 15.5936C13.1362 15.8071 12.8607 15.9356 12.5676 15.9528C12.2745 15.97 11.9859 15.8746 11.7607 15.6862C11.5356 15.4977 11.3908 15.2304 11.3562 14.9388L11.3481 14.804V14.516C11.3481 13.1878 12.4195 12.3906 13.1959 12.0784C13.5119 11.9522 13.7876 11.7423 13.9933 11.4713C14.199 11.2002 14.327 10.8783 14.3636 10.54C14.4001 10.2017 14.3438 9.8598 14.2007 9.55108C14.0576 9.24236 13.8331 8.97845 13.5513 8.7877C13.2696 8.59694 12.9412 8.48654 12.6014 8.46835C12.2616 8.45017 11.9233 8.52488 11.6227 8.68447C11.3222 8.84406 11.0708 9.0825 10.8956 9.37418C10.7204 9.66586 10.6279 9.99977 10.6281 10.34C10.6281 10.6456 10.5067 10.9386 10.2907 11.1546C10.0746 11.3707 9.78163 11.492 9.4761 11.492C9.17057 11.492 8.87756 11.3707 8.66152 11.1546C8.44547 10.9386 8.3241 10.6456 8.3241 10.34C8.3241 9.2325 8.76407 8.17032 9.54722 7.38716C10.3304 6.60401 11.3926 6.16404 12.5001 6.16404Z" fill="#193AF9"/>
</svg>
